<?xml version="1.0" encoding="UTF-8" standalone="no"?>
<!-- Created with Inkscape (http://www.inkscape.org/) -->

<svg
   version="1.1"
   id="svg9"
   width="860"
   height="1570"
   viewBox="0 0 860 1570"
   sodipodi:docname="SONIC.svg"
   inkscape:version="1.2.1 (9c6d41e410, 2022-07-14)"
   xmlns:inkscape="http://www.inkscape.org/namespaces/inkscape"
   xmlns:sodipodi="http://sodipodi.sourceforge.net/DTD/sodipodi-0.dtd"
   xmlns="http://www.w3.org/2000/svg"
   xmlns:svg="http://www.w3.org/2000/svg">
  <defs
     id="defs13" />
  <sodipodi:namedview
     id="namedview11"
     pagecolor="#ffffff"
     bordercolor="#000000"
     borderopacity="0.25"
     inkscape:showpageshadow="2"
     inkscape:pageopacity="0.0"
     inkscape:pagecheckerboard="0"
     inkscape:deskcolor="#d1d1d1"
     showgrid="false"
     inkscape:zoom="0.5"
     inkscape:cx="450"
     inkscape:cy="514"
     inkscape:window-width="1920"
     inkscape:window-height="1017"
     inkscape:window-x="-8"
     inkscape:window-y="-8"
     inkscape:window-maximized="1"
     inkscape:current-layer="g15" />
  <g
     inkscape:groupmode="layer"
     inkscape:label="Image"
     id="g15">
    <path
       style="fill:#fad599;fill-opacity:1"
       d="m 380.60022,524.67323 31.99659,-4.94975 13.43503,-1.76776 14.67246,-2.65165 6.54074,0.35355 12.19759,1.94454 -1.06066,6.71752 -14.67246,1.06066 -50.20459,7.24784 z"
       id="path3069" />
    <path
       style="fill:#cecacc;fill-opacity:1;stroke-width:1.01659"
       d="m 241.25,488.4749 -7,0.7751 -11,-34.62106 -12,-59.94095 1,-36.68799 6.75,25.83661 1.5,23.51132 6,32.8125 7,26.35335 z"
       id="path2032" />
    <path
       style="fill:#fad599;fill-opacity:1;stroke-width:1.03537"
       d="M 250.31066,504.49088 228.625,503.875 c 0.36311,-3.17559 -1.65002,-8.76361 1.375,-10.988 0.95484,-4.2632 3.21582,-4.69419 7,-5.762 5.718,0.13985 12.43322,11.93248 13.31066,17.36588 z"
       id="path2793"
       sodipodi:nodetypes="ccccc" />
    <path
       style="fill:#901cc7;fill-opacity:1;stroke:#ac09d6;stroke-width:1.584;stroke-dasharray:none;stroke-opacity:1"
       d="m 230.32572,271.23784 -36.58108,-75.73475 -13.42186,-36.58808 -1.8422,-7.41996 1.31586,-6.65238 3.9476,-2.55859 8.42156,-1.27931 10.7901,1.27931 23.15926,5.11722 34.21256,7.41995 18.68529,6.65238 21.05387,8.18754 16.8431,5.88481 -5.52664,6.39649 -14.21136,14.32821 -22.63292,23.53916 -19.21166,20.98059 -16.31675,20.46883 z"
       id="path10309" />
    <path
       style="fill:#c00000;fill-opacity:1;stroke:none;stroke-width:0.250121;stroke-dasharray:none;stroke-opacity:1"
       d="m 266.25838,481.36033 c 2.44397,7.35565 4.9312,11.73331 7.71165,17.04953 2.57498,3.3013 5.51328,7.23938 8.76144,0.78372 1.25702,-4.53602 1.95557,-8.23844 2.17173,-12.77447 z"
       id="path12949"
       sodipodi:nodetypes="ccccc" />
    <ellipse
       style="fill:#000000;fill-opacity:1;stroke:none;stroke-width:0.215952;stroke-dasharray:none;stroke-opacity:1"
       id="path14350"
       cx="276.98285"
       cy="488.02139"
       rx="2.4694328"
       ry="5.4670053" />
    <ellipse
       style="fill:#c70000;fill-opacity:1;stroke:none;stroke-width:1.1516;stroke-dasharray:none;stroke-opacity:1"
       id="path8851"
       cx="401.11554"
       cy="463.20062"
       rx="17.066608"
       ry="45.87727" />
    <ellipse
       style="fill:#000000;fill-opacity:1;stroke:none;stroke-width:0.761062;stroke-dasharray:none;stroke-opacity:1"
       id="ellipse10145"
       cx="399.1301"
       cy="461.03079"
       rx="11.099547"
       ry="30.808933" />
    <ellipse
       style="fill:#ffffff;fill-opacity:1;stroke:none;stroke-width:1.1;stroke-dasharray:none;stroke-opacity:1"
       id="path10199"
       cx="406.1218"
       cy="436.62009"
       rx="5.9067874"
       ry="6.509521" />
    <path
       style="fill:#901cc7;fill-opacity:1;stroke:#ac09d6;stroke-width:1.6;stroke-dasharray:none;stroke-opacity:1"
       d="m 260.06915,475.10802 -11.33683,-13.97925 -17.04788,-40.23299 -12.95639,-43.3016 -7.50106,-27.95852 -5.11436,-25.23086 -1.36383,-12.95638 2.72766,-14.32022 3.92127,-7.92181 5.29681,-6.34202 9.00054,-5.45479 26.78777,-35.17554 25.57181,-31.02713 18.41171,-17.72979 16.70691,-16.70692 25.91278,-18.07074 37.84628,-24.8899 28.64043,-15.34309 29.49309,-12.12659 29.15213,-8.00108 26.85586,-2.852655 21.44628,-1.125 24.94681,1.454785 20.49203,2.43246 22.96862,4.86436 24.42394,9.63777 24.6617,15.7633 13.85426,13.17234 c 1.83214,0.84936 7.99213,12.51369 11.14947,17.49149 0.59599,0.93962 9.16011,24.52828 9.16011,24.84415 l 1.17075,18.62766 -0.25,5.71649 10.525,3.94415 23.98085,10.16064 30.51543,14.96809 24.16278,15.52501 19.32021,17.45691 16.78671,20.6282 14.52447,24.95798 12.94521,27.33405 9.46702,25.45798 6.33032,23.32182 2.57979,25.71915 -0.42074,20.97979 c 0.5644,6.49551 -2.66635,21.1151 -5.93245,28.65054 l -30.81064,-13.99043 -22.90107,-7.03511 -25.75373,-7.06915 -33.68671,-7.12607 -25.56064,-3.68244 -31.01543,-5.43245 c -3.70389,-0.0122 -13.76738,-2.60266 -20.02607,-3.46649 l -0.23883,6.39894 2.88724,11.42287 11.21808,19.18511 11.53564,13.68352 15.74096,17.45745 c 3.40958,5.60866 5.69415,9.95994 10.22873,17.04787 l 8.48989,14.00266 10.46703,24.92395 5.36436,21.17394 3.43191,26.19628 -0.5117,22.09415 -1.86436,20.0149 c -0.0443,7.63816 -8.67726,34.37469 -13.77447,51.51703 -4.42736,16.5099 -14.31333,38.55306 -20.83192,53.39202 l -14.5016,-17.24042 -18.12766,-19.84416 -17.13883,-18.44574 -30.56118,-28.36756 -28.2766,-21.9915 -25.1399,-16.82074 -19.98032,-11.45639 -18.07075,-7.56915 -27.99256,-7.66011 -24.49202,-2.6367 -17.16144,-0.034 3.61409,-3.77314 16.36596,-15.51357 c 5.5751,-7.17585 9.53369,-13.94756 12.44495,-20.45745 1.74757,-5.30719 2.95662,-10.53744 2.38671,-15.51356 -0.98723,-4.56392 -2.77416,-9.40991 -6.47819,-12.61544 -5.13915,-2.17903 -6.6505,-2.45245 -11.88804,-3.68244 l -15.34309,-0.71596 20.2415,-25.43537 15.34308,-24.20799 7.16011,-22.84415 5.79628,-20.45745 0.34096,-16.36596 -1.36383,-16.025 -3.40958,-17.04788 -5.11436,-16.36596 -9.20585,-9.88777 -11.34256,-8.17181 -13.32021,-3.34149 -11.66118,0 -16.30904,3.89841 -17.93458,8.91064 -13.79788,10.66064 -11.56968,13.97926 -12.35372,18.42287 -12.82022,28.27713 -11.28591,23.78857 c -1.80003,6.45704 -7.5037,19.40778 -16.42261,26.1391 -2.45683,4.01076 -9.03403,9.2746 -14.91117,12.79681 -8.61246,4.27128 -14.98884,5.94978 -21.4117,6.05746 l -17.89974,-4.43791 z"
       id="path177"
       sodipodi:nodetypes="ccccccccccccccccccccccccccccsccccccccccccccccccccccccccccccccccccccccccccccccccccccccccccccccccccccccccccccc" />
    <path
       style="fill:#901cc7;fill-opacity:1;stroke:#ac09d6;stroke-width:2.25381;stroke-dasharray:none;stroke-opacity:1"
       d="m 434.41014,228.90359 23.19268,-29.85945 19.32721,-20.13777 24.94969,-20.83217 19.67863,-14.23533 20.38144,-11.11049 7.37948,-1.04161 5.62247,1.73601 5.97386,3.47204 5.62247,12.4993 c 0,0 4.91966,14.92971 4.91966,17.01294 0,2.08321 5.62246,24.99861 5.62246,24.99861 l 2.81124,22.9154 1.40561,21.87379 v 24.3042 l -3.51404,24.65141 -1.75701,13.54091 -56.92747,-21.17937 -48.84516,-24.6514 z"
       id="path11316" />
    <path
       style="fill:none;fill-opacity:1;stroke:#cfa572;stroke-width:3.2;stroke-dasharray:none;stroke-opacity:1"
       d="m 240.15255,487.25086 c -5.74252,-0.0459 -7.83013,0.67874 -9.63777,3.72766 -1.95505,2.77256 -1.98856,4.03737 -2.85266,7.02394 -1.51087,8.75703 6.04525,29.50298 13.00187,37.83485 12.66989,13.67894 26.24842,24.90196 41.64229,35.40293 26.93898,16.96108 56.11465,22.09762 85.02342,26.1399 27.46716,2.30115 49.38725,-2.60629 64.10001,-9.54681 15.18697,-9.27996 25.19107,-22.57581 36.1415,-33.07288 l 6.47819,-21.48032 c -0.25105,-4.92374 -2.08028,-9.45294 -5.96676,-13.46783 -13.10088,-3.89502 -27.4161,-5.59482 -34.60719,-3.58005 -22.74637,3.45053 -45.68739,8.4112 -71.26011,9.88777 -16.04561,-1.28389 -30.58928,-6.32264 -44.83591,-12.10399 -7.9146,-9.99701 -20.18296,-9.77093 -31.19762,-10.91064 -9.88875,0.67847 -19.41825,2.61432 -28.64043,5.6258 -8.98981,-6.84099 -14.03951,-17.91845 -17.38883,-21.48033 z"
       id="path14352"
       sodipodi:nodetypes="cccccccccccccccc" />
    <path
       style="fill:#fad599;fill-opacity:1;stroke:#d9af78;stroke-width:2.25877;stroke-dasharray:none;stroke-opacity:1"
       d="m 549.64033,144.71109 -18.23469,10.08568 -19.67065,14.65274 -14.05048,11.51284 -13.34794,12.21061 -9.83533,10.8151 -10.18658,14.30386 -4.56641,10.81509 2.45884,10.11736 14.40172,8.37299 61.82207,30.35206 17.04695,-2.37878 6.83884,-11.41785 0.6613,-48.57271 -3.47139,-33.44443 -5.97145,-27.33888 z"
       id="path11663"
       sodipodi:nodetypes="ccccccccccccccccc" />
    <ellipse
       style="fill:none;fill-opacity:1;stroke:none;stroke-width:1.18739;stroke-dasharray:none;stroke-opacity:1"
       id="ellipse12426"
       cx="469.49847"
       cy="260.66202"
       rx="10.775989"
       ry="9.9235954" />
    <path
       style="fill:#000000;fill-opacity:1;stroke:none;stroke-width:1.96431;stroke-dasharray:none;stroke-opacity:1"
       d="m 240.4782,500.82694 -10.58845,1.7661 c -2.19969,1.2906 -4.42339,2.50708 -6.18182,5.15918 -0.73605,1.88739 -1.34357,3.93341 -0.95923,7.20359 1.25215,2.9656 2.85113,5.93119 5.68254,8.89679 2.2089,2.953 4.85773,5.15188 7.74718,6.93829 l 14.44457,4.72977 13.82342,-0.86464 13.05839,-4.03912 6.7266,-5.16527 1.30925,-1.79142 0.36936,-4.16298 -1.60057,-3.27992 -1.84682,-2.0184 -7.87978,-1.00921 -9.09972,-2.13305 -7.0292,-3.16529 -4.92484,-3.0276 -4.92487,-2.52301 z"
       id="path15428"
       sodipodi:nodetypes="cccccccccccccccccccc" />
    <ellipse
       style="fill:#ffffff;fill-opacity:1;stroke:none;stroke-width:0.852981;stroke-dasharray:none;stroke-opacity:1"
       id="path15484"
       cx="249.56119"
       cy="513.68109"
       rx="10.123476"
       ry="5.0095148" />
    <ellipse
       style="fill:#901cc7;fill-opacity:1;stroke:none;stroke-width:3.2;stroke-dasharray:none;stroke-opacity:1"
       id="path15814"
       cx="442.25"
       cy="237.625"
       rx="10.75"
       ry="11.375" />
    <ellipse
       style="fill:#901cc7;fill-opacity:1;stroke:none;stroke-width:3.2;stroke-dasharray:none;stroke-opacity:1"
       id="ellipse15920"
       cx="448"
       cy="245.125"
       rx="10.75"
       ry="11.375" />
    <ellipse
       style="fill:#901cc7;fill-opacity:1;stroke:none;stroke-width:3.2;stroke-dasharray:none;stroke-opacity:1"
       id="ellipse15922"
       cx="454.75"
       cy="253.375"
       rx="10.75"
       ry="11.375" />
    <ellipse
       style="fill:#901cc7;fill-opacity:1;stroke:none;stroke-width:3.2;stroke-dasharray:none;stroke-opacity:1"
       id="ellipse15924"
       cx="460.75"
       cy="255.875"
       rx="10.75"
       ry="11.375" />
    <ellipse
       style="fill:#901cc7;fill-opacity:1;stroke:none;stroke-width:3.2;stroke-dasharray:none;stroke-opacity:1"
       id="ellipse15926"
       cx="469.5"
       cy="261.125"
       rx="10.75"
       ry="11.375" />
    <ellipse
       style="fill:#901cc7;fill-opacity:1;stroke:none;stroke-width:3.2;stroke-dasharray:none;stroke-opacity:1"
       id="ellipse15928"
       cx="478.25"
       cy="264.875"
       rx="10.75"
       ry="11.375" />
    <ellipse
       style="fill:#901cc7;fill-opacity:1;stroke:none;stroke-width:3.2;stroke-dasharray:none;stroke-opacity:1"
       id="ellipse15930"
       cx="487.75"
       cy="269.375"
       rx="10.75"
       ry="11.375" />
    <ellipse
       style="fill:#901cc7;fill-opacity:1;stroke:none;stroke-width:3.2;stroke-dasharray:none;stroke-opacity:1"
       id="ellipse15932"
       cx="497.75"
       cy="275.125"
       rx="10.75"
       ry="11.375" />
    <ellipse
       style="fill:#901cc7;fill-opacity:1;stroke:none;stroke-width:3.2;stroke-dasharray:none;stroke-opacity:1"
       id="ellipse15934"
       cx="508.25"
       cy="278.875"
       rx="10.75"
       ry="11.375" />
    <ellipse
       style="fill:#901cc7;fill-opacity:1;stroke:none;stroke-width:3.2;stroke-dasharray:none;stroke-opacity:1"
       id="ellipse15936"
       cx="516.25"
       cy="283.125"
       rx="10.75"
       ry="11.375" />
    <ellipse
       style="fill:#901cc7;fill-opacity:1;stroke:none;stroke-width:3.2;stroke-dasharray:none;stroke-opacity:1"
       id="ellipse15938"
       cx="526"
       cy="287.625"
       rx="10.75"
       ry="11.375" />
    <ellipse
       style="fill:#901cc7;fill-opacity:1;stroke:none;stroke-width:3.2;stroke-dasharray:none;stroke-opacity:1"
       id="ellipse15940"
       cx="534.5"
       cy="290.375"
       rx="10.75"
       ry="11.375" />
    <ellipse
       style="fill:#901cc7;fill-opacity:1;stroke:none;stroke-width:3.2;stroke-dasharray:none;stroke-opacity:1"
       id="ellipse15942"
       cx="543.25"
       cy="292.125"
       rx="10.75"
       ry="11.375" />
    <ellipse
       style="fill:#901cc7;fill-opacity:1;stroke:none;stroke-width:3.2;stroke-dasharray:none;stroke-opacity:1"
       id="ellipse15944"
       cx="552"
       cy="294.375"
       rx="10.75"
       ry="11.375" />
    <ellipse
       style="fill:#901cc7;fill-opacity:1;stroke:none;stroke-width:3.2;stroke-dasharray:none;stroke-opacity:1"
       id="ellipse15946"
       cx="561.25"
       cy="296.375"
       rx="10.75"
       ry="11.375" />
    <ellipse
       style="fill:#901cc7;fill-opacity:1;stroke:none;stroke-width:3.2;stroke-dasharray:none;stroke-opacity:1"
       id="ellipse15948"
       cx="561.25"
       cy="296.375"
       rx="10.75"
       ry="11.375" />
    <ellipse
       style="fill:#901cc7;fill-opacity:1;stroke:none;stroke-width:3.2;stroke-dasharray:none;stroke-opacity:1"
       id="ellipse15950"
       cx="564.5"
       cy="297.125"
       rx="10.75"
       ry="11.375" />
    <path
       style="fill:#fad599;fill-opacity:1"
       d="m 366.31802,597.39538 c -28.67651,-3.89359 -51.8784,-11.69211 -55.14644,-14.13411 -1.58818,-1.18673 -22.7705,-8.49466 -34.27699,-17.77496 -8.40293,-6.77719 -23.00347,-17.17663 -29.13081,-24.2535 l -7.6149,-8.79495 12.49878,2.79185 c 4.05296,0.90531 22.35654,-4.37616 27.29924,-9.84714 8.00027,-8.85534 -19.99437,-11.52453 -19.16961,-15.94549 0.94793,-5.08118 0.0246,2.40387 -0.0503,-0.81254 l 4.73744,-0.88935 c 2.76183,-0.51847 10.48861,-3.54135 18.88909,-3.54232 10.66286,-0.001 13.99266,1.61884 20.91421,2.71395 6.46059,1.02218 11.92948,7.5187 10.64645,7.81478 -2.43774,0.56255 50.22328,14.67922 54.82501,14.16876 6.94947,-0.77088 33.77401,-6.07416 36.22524,-6.60248 5.10293,-1.09984 21.44152,-4.15708 35.03778,-4.22165 16.30958,-0.0775 18.50773,0.51601 22.07476,5.95999 5.20107,7.93783 -2.36022,25.99111 -17.04515,40.69686 -12.96282,12.9812 -28.76222,21.43512 -46.56739,24.91721 -9.33547,1.8257 -28.24756,8.55601 -34.14645,7.75509 z m 29.14645,-35.39539 c 15.85543,-3.23523 30.13595,-11.00969 41.07871,-18.39402 5.28329,-3.56524 4.8484,-4.53771 5.3902,-2.37901 0.78952,3.14568 2.49353,2.84259 2.71079,-0.48216 0.70125,-10.73176 -1.96984,-14.25 -10.8188,-14.25 -6.60329,0 -6.84638,1.6715 -0.5484,3.77083 2.30312,0.76771 4.1875,1.77372 4.1875,2.23558 0,1.29238 -5.68276,6.67924 -10.65513,10.10032 -5.3627,3.68964 -15.33172,8.30455 -23.71987,10.98053 -6.58035,2.09926 -29.28637,6.91274 -32.60858,6.91274 -1.10903,0 -2.01642,0.42011 -2.01642,0.93358 0,2.22814 14.53598,3.11484 27,0.57161 z"
       id="path1065"
       sodipodi:nodetypes="sssscssscscssssssssssssssssssssss" />
    <path
       style="fill:#fad599;fill-opacity:1"
       d="m 364.33677,547.47743 2.12132,25.45584 66.11448,-10.78338 18.03123,-22.98097 -5.65686,-14.67247 -21.56675,-0.35355 z"
       id="path3065" />
    <path
       style="fill:#fad599;fill-opacity:1"
       d="m 360.80124,527.67844 77.42819,-6.89429 3.88909,-4.06586 16.61701,2.29809 8.13173,1.76777 3.35875,4.59619 2.82843,6.54074 -1.59099,6.01041 -1.76777,7.24784 -3.18198,8.66206 -2.82842,2.82843 -3.18199,3.53553 -6.71751,7.07107 -6.71751,7.42462 -11.31371,9.54594 -11.84404,5.83364 -10.78338,3.71231 -15.55635,3.35875 -15.73312,1.23744 -14.84925,-1.23744 z"
       id="path3067" />
    <path
       style="fill:#d2a771;fill-opacity:1;stroke-width:1.05613"
       d="m 368.68782,565.83228 c 4.42615,-2.66829 31.98068,-7.35646 46.68568,-14.41777 17.7287,-7.50622 17.6752,-7.38536 24.63918,-10.94441 3.61037,-3.07308 -2.87191,-7.65248 -5.25277,-9.31672 0.35519,-2.43961 6.23694,-0.92522 11.17897,2.32918 2.16867,3.69067 2.2232,8.05839 2.28967,12.42229 -4.45775,-2.86515 -4.70067,-3.00039 -6.46494,-0.51759 -3.69711,3.24398 -7.10377,6.11665 -13.19927,9.18732 -2.73304,2.05196 -1.22842,0.0728 -12.38272,5.31453 -3.82569,0.43688 -9.19825,3.12488 -19.77365,5.22333 z"
       id="path1121"
       sodipodi:nodetypes="ccccccccccc" />
  </g>
</svg>
