<?xml version="1.0" encoding="UTF-8" standalone="no"?>
<!-- Created with Inkscape (http://www.inkscape.org/) -->

<svg
   version="1.1"
   id="svg9"
   width="720"
   height="405"
   viewBox="0 0 720 405"
   sodipodi:docname="flamengo3.svg"
   inkscape:version="1.2.1 (9c6d41e410, 2022-07-14)"
   xmlns:inkscape="http://www.inkscape.org/namespaces/inkscape"
   xmlns:sodipodi="http://sodipodi.sourceforge.net/DTD/sodipodi-0.dtd"
   xmlns="http://www.w3.org/2000/svg"
   xmlns:svg="http://www.w3.org/2000/svg">
  <defs
     id="defs13" />
  <sodipodi:namedview
     id="namedview11"
     pagecolor="#ffffff"
     bordercolor="#000000"
     borderopacity="0.25"
     inkscape:showpageshadow="2"
     inkscape:pageopacity="0.0"
     inkscape:pagecheckerboard="0"
     inkscape:deskcolor="#d1d1d1"
     showgrid="false"
     inkscape:zoom="2.0098765"
     inkscape:cx="310.46684"
     inkscape:cy="180.60811"
     inkscape:window-width="1920"
     inkscape:window-height="1017"
     inkscape:window-x="-8"
     inkscape:window-y="-8"
     inkscape:window-maximized="1"
     inkscape:current-layer="g15" />
  <g
     inkscape:groupmode="layer"
     inkscape:label="Image"
     id="g15">
    <path
       style="fill:#000000"
       d="M 250.17181,35.332508 H 515.4411 l 0.52772,129.292392 -0.52772,5.98087 -0.70364,7.03632 -1.40726,11.25812 -2.2868,12.31356 -3.69407,16.35944 -2.99044,9.14722 -3.16634,8.09177 -1.93499,4.3977 -1.93499,4.57361 -4.04588,8.7954 -4.74952,8.44358 -5.10133,8.09177 c 0,0 -3.45732,6.44183 -5.45315,9.49903 -2.42974,3.72185 -7.91586,10.73039 -7.91586,10.73039 0,0 -6.85776,8.25424 -10.55448,12.13765 -2.80213,2.94365 -5.8303,5.66417 -8.7954,8.44359 -3.42158,3.20731 -6.90002,6.3536 -10.37858,9.49903 -4.37393,3.95506 -13.1931,11.78584 -13.1931,11.78584 l -8.09176,5.80496 -10.02676,6.86042 -10.9063,6.6845 -7.38813,4.3977 c 0,0 -4.74437,4.4899 -7.73996,4.57361 -3.69635,0.1033 -6.59247,-3.35302 -9.85085,-5.10133 -3.7237,-1.99798 -7.51141,-3.89684 -11.0822,-6.15678 -4.93605,-3.12401 -9.44792,-6.87432 -14.24855,-10.20267 -4.41039,-3.05779 -9.11272,-5.70242 -13.36901,-8.97131 -3.95472,-3.03729 -11.25811,-9.85085 -11.25811,-9.85085 l -10.9063,-10.55448 c 0,0 -10.81495,-11.17102 -15.65581,-17.23898 -7.09087,-8.88831 -13.86158,-18.11041 -19.52579,-27.96938 -5.63279,-9.80428 -10.3414,-20.17323 -14.24855,-30.7839 -3.61812,-9.82578 -6.25334,-20.01706 -8.44359,-30.25618 -1.40158,-6.5522 -2.99043,-19.8776 -2.99043,-19.8776 l -1.40727,-13.89674 z"
       id="path177"
       sodipodi:nodetypes="cccccccccccccccscssscccccsssssccssssccc" />
    <path
       style="fill:#ffffff;stroke-width:1.43455"
       d="m 254.96809,153.67312 1.02391,38.4352 255.45952,-0.24877 -0.25597,-38.68397 z"
       id="path313" />
    <path
       style="fill:#ffffff;stroke-width:1.01781"
       d="m 380.84647,75.120302 0.51543,38.435198 128.59698,-0.24877 -0.12885,-38.683968 z"
       id="path247" />
    <path
       style="fill:#ffffff"
       d="m 253.93606,39.460923 0.24877,108.215597 124.38576,-0.24877 -0.49754,-108.215597 z"
       id="path249" />
    <path
       style="fill:#ff0000"
       d="m 298.94937,117.80925 10.73039,3.16634 -0.35181,-15.12809 3.69406,-0.1759 6.33269,1.93498 4.74952,2.63863 5.27724,4.3977 4.3977,5.98087 3.16634,7.73995 4.2218,6.5086 1.58317,2.11089 3.16634,2.46272 2.99044,1.23135 4.04588,-0.17591 3.69407,-3.16634 2.28681,-3.86998 1.58317,-7.03632 -4.22179,3.16635 -5.62906,2.11089 -5.62906,-3.69407 -4.3977,-8.26767 -2.81453,-6.33269 -3.86997,-5.10133 -5.80497,-5.10134 -5.62905,-2.99043 -5.98088,-1.759076 -6.6845,-1.05545 -0.35182,-43.97701 5.62906,-1.93498 6.5086,0.35181 5.45315,1.58317 4.3977,2.81453 4.04588,3.34225 2.99044,4.57361 2.46271,5.80497 0.52772,7.91586 -1.40726,5.45315 -2.46271,4.5736 -1.40727,1.40727 0.17591,5.80497 2.99044,0.52772 5.80496,-4.57361 4.74952,-5.27724 2.11089,-5.10133 0.35182,-2.81453 2.2868,-1.75908 -2.2868,-2.99044 -1.40726,-5.80496 -2.99044,-7.56405 -3.16634,-4.22179 -5.80497,-5.10133 -5.62906,-3.16635 -6.33268,-2.2868 h -8.44359 l -5.62906,1.23136 -3.86997,1.75908 -11.78584,-4.3977 -4.57361,0.70363 -3.34225,0.70363 0.17591,1.40726 3.86998,0.35182 2.11089,2.1109 2.46271,3.51816 0.70364,2.81452 z"
       id="path237" />
    <path
       style="fill:#ff0000"
       d="m 290.58953,143.93152 5.27724,-0.35182 3.16635,-1.23136 3.16634,-1.58317 1.75908,-1.75908 2.46271,2.46271 2.81453,1.40727 2.81453,0.35181 3.86998,0.35182 -1.93499,-2.1109 -2.46271,-3.69406 -1.23136,-1.93499 -1.40726,-4.2218 0.1759,-2.11089 5.98088,-1.05545 4.57361,-1.23137 0.1759,-6.6845 -3.86997,1.75908 -5.80497,0.87954 -7.56404,-0.70363 -9.14722,-4.04589 -6.15678,-6.6845 -4.04588,-8.7954 -1.40727,-6.15677 -0.70363,-6.684506 1.40726,-7.564045 2.99044,-8.267677 5.27724,-6.332688 4.3977,-3.342252 -0.17591,-7.915861 -4.92542,2.63862 -7.38814,5.629057 -7.91586,9.67494 -4.22179,10.202665 -2.2868,8.267677 -1.23136,0.87954 1.05545,1.75908 1.58317,5.27724 2.2868,7.03631 5.10134,7.38814 3.51816,3.86997 7.03632,5.62906 7.03632,3.86999 2.81453,2.81452 -1.05545,4.2218 -2.63862,4.57361 z"
       id="path233" />
    <path
       style="fill:#ff0000"
       d="m 311.16559,54.435763 8.44359,-0.175908 -1.05545,3.51816 -1.05545,3.694068 v 5.277241 l 1.23136,4.045884 1.23135,2.990436 -0.87954,2.462712 -1.75908,1.407265 -5.10133,-0.703632 z"
       id="path239" />
    <path
       style="fill:#ff0000"
       d="m 338.40455,71.7394 -0.35181,-3.51816 -2.99044,-5.101333 h -16.00763 l 0.35182,1.583173 2.46271,1.407264 1.05545,2.110896 0.17591,29.024826 4.04588,2.2868 4.92543,3.342254 3.86997,3.86998 13.54492,0.35181 1.05545,2.28681 -0.52773,2.4627 -1.93498,2.81453 -2.99044,2.1109 5.10133,0.35181 3.16635,-1.23135 2.81452,-3.69407 0.17591,-4.22179 -1.05545,-6.86041 0.52773,-4.573614 2.81453,-5.980868 3.86997,-5.277241 h -4.04588 l -5.10133,3.51816 -2.1109,3.518161 -2.63862,4.749518 -14.42446,-0.17591 -0.35181,-24.451214 z"
       id="path243" />
    <path
       style="fill:#ff0000"
       d="m 352.83581,64.233204 1.93499,8.267681 7.38813,-0.17591 2.28681,1.75908 2.11089,2.63862 0.87954,2.99044 1.40727,3.51816 2.63862,2.63862 3.16634,1.93498 2.28681,0.35182 -3.16635,-4.74952 -1.93499,-5.27724 -0.70363,-5.27724 1.05545,-4.3977 1.05545,-3.34225 -0.35182,-5.453149 -0.17591,-2.990436 -3.16634,-5.629057 -1.05545,-0.527724 -0.17591,3.342253 0.70364,4.925424 -1.58318,3.166344 -2.2868,2.286804 z"
       id="path245" />
    <path
       style="fill:#ffffff;stroke-width:0.762305"
       d="m 332.58481,294.89442 0.40222,27.62913 100.35024,-0.17882 -0.10044,-27.80797 z"
       id="path311" />
    <path
       style="fill:#ffffff;stroke-width:1.27232"
       d="m 280.84034,224.88074 0.80541,38.4352 200.94828,-0.24877 -0.20135,-38.68397 z"
       id="path315" />
    <path
       style="fill:#ffffff"
       d="m 280.86302,224.88944 0.8707,38.31081 -17.28962,-37.93766 z"
       id="path371" />
    <path
       style="fill:#ffffff;stroke-width:0.991376"
       d="m 482.45494,224.30127 -0.84412,38.83854 16.7619,-38.46026 z"
       id="path371-6" />
    <path
       style="fill:#ffffff;stroke-width:0.78399"
       d="m 332.55246,294.79424 0.73915,27.73802 -14.67751,-27.46785 z"
       id="path371-3" />
    <path
       style="fill:#ffffff;stroke-width:0.700669"
       d="m 432.01453,294.54545 -0.58255,28.11118 11.56788,-27.83736 z"
       id="path371-9" />
  </g>
</svg>
